<?xml version="1.0" encoding="UTF-8"?>
<svg width="752pt" height="752pt" version="1.1" viewBox="0 0 752 752" xmlns="http://www.w3.org/2000/svg">
 <path d="m234.45 263.29c-4.0625 0.015625-7.3555 3.3086-7.3711 7.3711 0.015625 4.0664 3.3086 7.3555 7.3711 7.3711h204.01v168.57h-93.074c-2.5781-17.629-17.691-31.348-35.887-31.348-18.195 0-33.305 13.715-35.887 31.348h-31.734v-32.07c0.007812-1.9727-0.77344-3.8672-2.168-5.2617s-3.2891-2.1758-5.2617-2.168c-1.9609 0.007813-3.8398 0.79688-5.2227 2.1914-1.3828 1.3906-2.1562 3.2773-2.1484 5.2383v39.5c0.015625 4.0625 3.3086 7.3555 7.3711 7.3711h40.02c4.1406 15.629 18.273 27.316 35.031 27.316 16.758 0 30.891-11.688 35.031-27.316h134.99c4.1406 15.629 18.273 27.316 35.031 27.316s30.859-11.688 34.988-27.316h33.68c4.0625-0.015625 7.3555-3.3086 7.3711-7.3711v-68.723c0-0.94922-0.17969-1.8945-0.53516-2.7734l-27.707-68.664c-1.1211-2.7891-3.8164-4.6211-6.8203-4.6406h-102.25v-38.574c-0.019532-4.0703-3.3164-7.3633-7.3867-7.3711zm-32.23 46.812c-1.9609 0.007813-3.8398 0.79297-5.2227 2.1875-1.3828 1.3945-2.1523 3.2773-2.1445 5.2422 0.015625 4.0625 3.3047 7.3555 7.3672 7.3711h111.65c1.9609 0.007812 3.8477-0.76563 5.2422-2.1484 1.3906-1.3828 2.1797-3.2617 2.1875-5.2227 0.007812-1.9727-0.77344-3.8672-2.168-5.2617s-3.2891-2.1758-5.2617-2.168zm251.05 13.934h97.223l21.738 53.906h-118.96zm-284.42 33.254c-1.9648-0.007812-3.8555 0.76562-5.2461 2.1523-1.3945 1.3867-2.1797 3.2695-2.1836 5.2344 0.007812 1.9609 0.79297 3.8398 2.1875 5.2227 1.3945 1.3828 3.2773 2.1562 5.2422 2.1484h145.02c1.9609 0.007812 3.8477-0.76562 5.2422-2.1484 1.3906-1.3828 2.1797-3.2617 2.1875-5.2227-0.003907-1.9648-0.78906-3.8477-2.1836-5.2344s-3.2812-2.1602-5.2461-2.1523zm284.43 35.453h122.52l-0.003906 53.863h-25.406c-2.5703-17.629-17.633-31.348-35.828-31.348-18.191 0-33.293 13.719-35.871 31.348h-25.406zm-144.32 37.316c0.18359-0.003907 0.36328 0 0.55078 0 11.871 0 21.461 9.6406 21.461 21.895 0 12.254-9.5898 21.969-21.461 21.969s-21.461-9.7148-21.461-21.969c0-12.062 9.2969-21.602 20.914-21.895zm205.05 0c0.18359-0.003907 0.36328 0 0.55078 0 11.871 0 21.477 9.6406 21.477 21.895 0 12.254-9.6055 21.969-21.477 21.969-11.871 0-21.461-9.7148-21.461-21.969 0-12.062 9.2969-21.602 20.914-21.895z"/>
</svg>
